<?xml version="1.0" encoding="utf-8"?>
<!-- Svg Vector Icons : http://www.onlinewebfonts.com/icon -->
<!DOCTYPE svg PUBLIC "-//W3C//DTD SVG 1.1//EN" "http://www.w3.org/Graphics/SVG/1.1/DTD/svg11.dtd">
<svg version="1.1" xmlns="http://www.w3.org/2000/svg" xmlns:xlink="http://www.w3.org/1999/xlink" x="0px" y="0px" viewBox="0 0 256 256" enable-background="new 0 0 256 256" xml:space="preserve">
<metadata> Svg Vector Icons : http://www.onlinewebfonts.com/icon </metadata>
<g><g><path fill="#666" d="M220.9,118.2c-4.6-43.7-39.3-78.5-83.1-83.1V19.8c0-5.5-4.4-9.8-9.8-9.8c-5.5,0-9.8,4.4-9.8,9.8v15.3l0,0c-43.7,4.6-78.5,39.3-83.1,83.1l0,0H19.8c-5.5,0-9.8,4.4-9.8,9.8c0,5.5,4.4,9.8,9.8,9.8h15.3c4.6,43.7,39.3,78.5,83.1,83.1l0,0v15.3c0,5.5,4.4,9.8,9.8,9.8c5.5,0,9.8-4.4,9.8-9.8v-15.3c43.7-4.6,78.5-39.3,83.1-83.1h15.3c5.5,0,9.8-4.4,9.8-9.8c0-5.5-4.4-9.8-9.8-9.8H220.9L220.9,118.2L220.9,118.2z M128,201.8c-40.7,0-73.8-33-73.8-73.8c0-40.7,33-73.8,73.8-73.8c40.7,0,73.8,33,73.8,73.8C201.8,168.7,168.7,201.8,128,201.8L128,201.8L128,201.8z M130.5,174.7c23.3,0,44.2-20.9,44.2-44.2c0-28.3-20.9-49.2-44.2-49.2c-28.2,0-49.2,20.9-49.2,49.2C81.3,153.8,102.2,174.7,130.5,174.7L130.5,174.7z"/></g></g>
</svg>